<!DOCTYPE svg PUBLIC "-//W3C//DTD SVG 20010904//EN" "http://www.w3.org/TR/2001/REC-SVG-20010904/DTD/svg10.dtd">
<svg version="1.0" xmlns="http://www.w3.org/2000/svg" width="65px" height="31px" viewBox="0 0 650 310" preserveAspectRatio="xMidYMid meet">
<g id="layer1" fill="#4d466f" stroke="none">
 <path d="M210 80 c0 -5 9 -10 20 -10 11 0 20 5 20 10 0 6 -9 10 -20 10 -11 0 -20 -4 -20 -10z"/>
 </g>
<g id="layer2" fill="#8b063a" stroke="none">
 <path d="M455 150 c-27 -30 -12 -34 15 -5 13 14 19 25 13 25 -5 0 -18 -9 -28 -20z"/>
 </g>
<g id="layer3" fill="#0d3d8b" stroke="none">
 <path d="M192 183 c-35 -43 -34 -58 2 -24 20 19 42 61 32 61 -2 0 -17 -17 -34 -37z"/>
 </g>
<g id="layer4" fill="#632a69" stroke="none">
 <path d="M384 198 l-29 -33 33 29 c17 17 32 31 32 33 0 8 -8 1 -36 -29z"/>
 <path d="M274 158 l-19 -23 23 19 c21 18 27 26 19 26 -2 0 -12 -10 -23 -22z"/>
 <path d="M319 123 c-13 -16 -12 -17 4 -4 16 13 21 21 13 21 -2 0 -10 -8 -17 -17z"/>
 <path d="M234 108 l-19 -23 23 19 c21 18 27 26 19 26 -2 0 -12 -10 -23 -22z"/>
 </g>
<g id="layer5" fill="#664f8c" stroke="none">
 <path d="M455 241 c3 -6 15 -8 27 -6 34 7 34 15 -1 15 -18 0 -30 -4 -26 -9z"/>
 <path d="M424 228 c-4 -7 -3 -8 4 -4 12 7 16 16 8 16 -3 0 -8 -5 -12 -12z"/>
 <path d="M349 153 c-13 -16 -12 -17 4 -4 16 13 21 21 13 21 -2 0 -10 -8 -17 -17z"/>
 <path d="M314 58 c-4 -7 -3 -8 4 -4 7 4 12 9 12 12 0 8 -9 4 -16 -8z"/>
 </g>
<g id="layer6" fill="#4e0235" stroke="none">
 <path d="M294 161 c-15 -17 -31 -28 -34 -26 -3 2 -6 -5 -7 -15 -1 -11 3 -22 8 -26 14 -8 56 21 70 48 12 23 12 23 -10 4 -25 -22 -28 -10 -5 22 21 31 11 27 -22 -7z"/>
 </g>
<g id="layer7" fill="#6a0452" stroke="none">
 <path d="M385 231 c-22 -11 -34 -20 -26 -20 9 -1 10 -5 4 -13 -9 -12 -29 -58 -20 -48 2 3 23 26 47 53 23 26 41 47 39 47 -2 0 -22 -9 -44 -19z"/>
 </g>
<g id="layer8" fill="#fb4471" stroke="none">
 <path d="M641 149 c0 -9 -12 -33 -27 -54 -14 -20 -23 -45 -21 -54 4 -13 6 -11 12 7 4 12 11 22 15 22 12 0 32 57 27 77 -4 14 -5 14 -6 2z"/>
 </g>
<g id="layer9" fill="#9c0d50" stroke="none">
 <path d="M484 171 c3 -4 -6 -19 -19 -31 -14 -13 -25 -19 -25 -14 0 5 -5 1 -11 -9 -6 -10 -8 -22 -4 -25 4 -4 11 1 16 11 6 9 16 14 22 11 7 -4 9 -4 5 1 -4 4 4 16 17 27 28 22 32 38 9 38 -8 0 -13 -4 -10 -9z"/>
 <path d="M449 153 c-13 -16 -12 -17 4 -4 16 13 21 21 13 21 -2 0 -10 -8 -17 -17z"/>
 </g>
<g id="layer10" fill="#550449" stroke="none">
 <path d="M325 197 c-10 -8 -19 -26 -21 -41 -2 -21 0 -25 10 -17 7 6 17 7 21 3 5 -4 5 -1 1 6 -4 6 -4 12 1 12 4 0 13 11 20 25 13 29 -1 34 -32 12z m5 -11 c0 -3 -5 -8 -12 -12 -7 -4 -8 -3 -4 4 7 12 16 16 16 8z"/>
 <path d="M269 143 c-13 -16 -12 -17 4 -4 16 13 21 21 13 21 -2 0 -10 -8 -17 -17z"/>
 <path d="M236 102 c-3 -6 1 -13 10 -16 23 -9 28 -2 10 13 -8 7 -17 8 -20 3z"/>
 </g>
<g id="layer11" fill="#2c9fc3" stroke="none">
 <path d="M62 269 c-12 -18 -11 -20 4 -17 9 1 18 11 20 21 3 23 -8 22 -24 -4z"/>
 <path d="M0 117 c0 -15 29 -63 47 -78 17 -13 17 -13 2 6 -9 11 -24 34 -32 50 -9 17 -16 26 -17 22z"/>
 <path d="M110 69 c0 -5 10 -9 22 -9 12 0 18 3 14 7 -10 11 -36 12 -36 2z"/>
 </g>
<g id="layer12" fill="#f53266" stroke="none">
 <path d="M562 57 c-45 -35 -51 -42 -35 -48 22 -9 57 12 62 37 1 11 10 27 19 37 22 25 13 20 -46 -26z"/>
 <path d="M610 60 c0 -7 3 -10 7 -7 3 4 3 10 0 14 -4 3 -7 0 -7 -7z"/>
 </g>
<g id="layer13" fill="#1f96be" stroke="none">
 <path d="M83 273 c4 -3 10 -3 14 0 3 4 0 7 -7 7 -7 0 -10 -3 -7 -7z"/>
 <path d="M49 233 c-13 -16 -12 -17 4 -4 16 13 21 21 13 21 -2 0 -10 -8 -17 -17z"/>
 <path d="M71 202 c-6 -12 -11 -27 -11 -34 1 -7 8 0 16 15 9 16 13 31 11 34 -3 2 -10 -4 -16 -15z"/>
 <path d="M105 151 c-3 -5 -1 -12 5 -16 5 -3 10 1 10 9 0 18 -6 21 -15 7z"/>
 <path d="M60 139 c0 -16 20 -49 30 -49 4 0 2 14 -6 30 -16 31 -24 38 -24 19z"/>
 <path d="M160 130 l-25 -8 28 -1 c15 -1 27 4 27 9 0 6 -1 10 -2 9 -2 -1 -14 -5 -28 -9z"/>
 </g>
<g id="layer14" fill="#0b93ba" stroke="none">
 <path d="M42 218 c-6 -8 -15 -25 -20 -39 -8 -21 -7 -28 10 -38 24 -15 29 -11 32 26 2 15 5 34 7 42 5 18 -15 25 -29 9z"/>
 <path d="M120 130 c0 -5 5 -10 11 -10 5 0 7 5 4 10 -3 6 -8 10 -11 10 -2 0 -4 -4 -4 -10z"/>
 <path d="M93 83 c4 -3 10 -3 14 0 3 4 0 7 -7 7 -7 0 -10 -3 -7 -7z"/>
 </g>
<g id="layer15" fill="#5d92ba" stroke="none">
 <path d="M50 269 c0 -5 5 -7 10 -4 6 3 10 8 10 11 0 2 -4 4 -10 4 -5 0 -10 -5 -10 -11z"/>
 <path d="M25 250 c-3 -5 -1 -10 4 -10 6 0 11 5 11 10 0 6 -2 10 -4 10 -3 0 -8 -4 -11 -10z"/>
 <path d="M375 174 c-38 -40 -61 -72 -58 -81 4 -11 8 -10 18 4 7 10 14 22 16 28 2 5 28 33 58 62 29 29 48 53 41 53 -7 0 -40 -30 -75 -66z m-25 -48 c0 -2 -8 -10 -17 -17 -16 -13 -17 -12 -4 4 13 16 21 21 21 13z"/>
 <path d="M213 63 c4 -3 10 -3 14 0 3 4 0 7 -7 7 -7 0 -10 -3 -7 -7z"/>
 </g>
<g id="layer16" fill="#11b0c6" stroke="none">
 <path d="M90 160 c0 -7 3 -10 7 -7 3 4 3 10 0 14 -4 3 -7 0 -7 -7z"/>
 <path d="M7 138 c-5 -14 32 -88 44 -88 4 0 9 7 13 15 3 9 12 12 23 8 14 -5 12 0 -7 23 -46 53 -65 64 -73 42z"/>
 </g>
<g id="layer17" fill="#2a3a9e" stroke="none">
 <path d="M249 267 l41 -42 32 34 c18 19 25 32 17 29 -9 -4 -28 0 -42 7 -19 10 -27 10 -31 2 -3 -8 -7 -9 -13 -2 -4 6 -17 11 -27 12 -14 1 -9 -9 23 -40z"/>
 <path d="M204 208 c-4 -7 -3 -8 4 -4 7 4 12 9 12 12 0 8 -9 4 -16 -8z"/>
 </g>
<g id="layer18" fill="#64aad0" stroke="none">
 <path d="M5 199 c-10 -30 -2 -32 12 -3 6 13 7 24 3 24 -5 0 -12 -9 -15 -21z"/>
 <path d="M312 104 c-24 -19 -52 -34 -63 -34 -10 0 -19 -7 -19 -15 0 -8 -9 -24 -20 -35 -16 -16 -17 -20 -5 -20 9 0 28 6 43 14 30 15 70 56 56 56 -5 0 -4 4 1 8 13 10 60 62 54 61 -2 0 -23 -16 -47 -35z"/>
 </g>
<g id="layer19" fill="#30b8cc" stroke="none">
 <path d="M60 60 c-8 -15 -5 -23 12 -40 30 -28 62 -26 76 5 16 35 15 46 -3 39 -8 -3 -28 -1 -45 4 -25 9 -31 8 -40 -8z"/>
 </g>
<g id="layer20" fill="#8f0d6f" stroke="none">
 <path d="M453 285 c-26 -27 -21 -35 22 -35 33 0 80 34 70 51 -12 18 -69 8 -92 -16z"/>
 <path d="M366 263 c-6 -14 -5 -15 5 -6 7 7 10 15 7 18 -3 3 -9 -2 -12 -12z"/>
 <path d="M320 219 c0 -5 5 -7 10 -4 6 3 10 8 10 11 0 2 -4 4 -10 4 -5 0 -10 -5 -10 -11z"/>
 </g>
<g id="layer21" fill="#51b1cf" stroke="none">
 <path d="M41 258 c0 -9 -7 -18 -13 -21 -7 -2 -10 -8 -5 -12 11 -13 29 11 24 31 -4 16 -5 16 -6 2z"/>
 <path d="M15 199 c-4 -6 -5 -12 -2 -15 2 -3 7 2 10 11 7 17 1 20 -8 4z"/>
 <path d="M179 72 c-10 -1 -19 -11 -22 -20 -3 -9 -8 -25 -12 -34 -6 -15 -2 -18 19 -18 24 0 66 30 66 48 0 12 -34 28 -51 24z"/>
 </g>
<g id="layer22" fill="#1770af" stroke="none">
 <path d="M93 288 c2 -7 -4 -23 -15 -35 -20 -21 -20 -21 1 -32 17 -9 24 -8 40 8 24 24 17 71 -11 71 -11 0 -18 -5 -15 -12z"/>
 <path d="M207 164 c-22 -29 -14 -47 8 -18 12 16 20 45 13 44 -2 0 -11 -12 -21 -26z"/>
 <path d="M122 148 c3 -7 18 -14 34 -15 16 -1 21 1 12 3 -10 3 -18 10 -18 15 0 5 -7 9 -16 9 -9 0 -14 -6 -12 -12z"/>
 </g>
<g id="layer23" fill="#790c72" stroke="none">
 <path d="M403 298 c-13 -6 -23 -15 -23 -21 0 -12 -53 -62 -63 -59 -4 1 -6 -2 -5 -7 2 -5 -6 -17 -17 -26 -19 -16 -19 -16 5 -1 49 31 101 57 113 55 30 -4 40 1 29 14 -9 10 -6 17 8 27 11 8 20 18 20 22 0 11 -41 9 -67 -4z"/>
 <path d="M305 30 c3 -5 8 -10 11 -10 3 0 2 5 -1 10 -3 6 -8 10 -11 10 -3 0 -2 -4 1 -10z"/>
 </g>
<g id="layer24" fill="#1d5aa2" stroke="none">
 <path d="M113 303 c15 -4 22 -25 18 -58 0 -6 16 -9 39 -7 22 2 40 8 40 13 0 5 -5 9 -10 9 -6 0 -20 11 -32 25 -13 16 -31 25 -47 24 -17 -1 -20 -3 -8 -6z"/>
 <path d="M334 268 c-4 -7 -3 -8 4 -4 12 7 16 16 8 16 -3 0 -8 -5 -12 -12z"/>
 <path d="M225 199 c3 -18 0 -39 -6 -46 -14 -16 3 -17 19 -1 16 16 15 53 -2 67 -12 10 -14 7 -11 -20z"/>
 <path d="M274 204 c-18 -14 -18 -15 4 -4 12 6 22 13 22 15 0 8 -5 6 -26 -11z"/>
 <path d="M185 201 c-3 -5 -1 -12 5 -16 5 -3 10 1 10 9 0 18 -6 21 -15 7z"/>
 <path d="M194 158 l-19 -23 23 19 c21 18 27 26 19 26 -2 0 -12 -10 -23 -22z"/>
 <path d="M155 159 c-11 -17 1 -21 15 -4 8 9 8 15 2 15 -6 0 -14 -5 -17 -11z"/>
 </g>
<g id="layer25" fill="#254ea5" stroke="none">
 <path d="M162 290 c7 -11 21 -23 30 -26 17 -5 23 -17 18 -39 -1 -5 2 -7 6 -3 11 11 34 -12 34 -34 0 -10 5 -16 10 -13 6 4 8 11 5 16 -4 5 4 14 17 20 13 6 30 20 37 32 14 22 14 22 -8 3 -21 -19 -22 -19 -56 14 -21 20 -31 37 -25 40 6 4 -10 7 -35 8 -43 2 -45 1 -33 -18z"/>
 <path d="M250 300 c0 -5 5 -10 11 -10 5 0 7 5 4 10 -3 6 -8 10 -11 10 -2 0 -4 -4 -4 -10z"/>
 <path d="M325 280 c3 -5 8 -10 11 -10 3 0 2 5 -1 10 -3 6 -8 10 -11 10 -3 0 -2 -4 1 -10z"/>
 <path d="M174 178 c-4 -7 -3 -8 4 -4 12 7 16 16 8 16 -3 0 -8 -5 -12 -12z"/>
 </g>
<g id="layer26" fill="#e7205d" stroke="none">
 <path d="M631 198 c-1 -10 -10 -22 -21 -28 -11 -6 -20 -18 -20 -26 0 -8 -4 -12 -10 -9 -5 3 -7 0 -4 -8 7 -18 -24 -49 -39 -40 -7 3 -9 3 -5 -2 4 -4 -13 -21 -39 -37 -52 -33 -46 -48 17 -47 27 0 30 2 16 8 -17 7 -14 11 25 38 25 17 50 38 57 45 23 28 40 83 31 103 -6 17 -8 17 -8 3z"/>
 <path d="M550 160 c0 -7 3 -10 7 -7 3 4 3 10 0 14 -4 3 -7 0 -7 -7z"/>
 <path d="M453 73 c4 -3 10 -3 14 0 3 4 0 7 -7 7 -7 0 -10 -3 -7 -7z"/>
 <path d="M480 60 c0 -7 3 -10 7 -7 3 4 3 10 0 14 -4 3 -7 0 -7 -7z"/>
 </g>
<g id="layer27" fill="#cf1c63" stroke="none">
 <path d="M579 223 c-13 -14 -18 -23 -11 -19 9 5 12 -3 12 -32 0 -45 -31 -92 -60 -92 -11 0 -24 -8 -29 -17 -6 -10 -11 -12 -11 -5 0 19 -54 14 -80 -8 -19 -16 -21 -22 -10 -35 7 -8 28 -15 49 -15 25 0 32 3 22 9 -11 7 0 18 47 48 45 28 66 48 76 74 8 20 22 39 30 42 9 4 16 14 17 24 0 16 1 16 9 -2 8 -19 9 -19 9 3 1 12 -3 22 -9 22 -5 0 -10 7 -10 15 0 23 -24 18 -51 -12z"/>
 <path d="M530 165 c0 -8 4 -15 10 -15 5 0 7 7 4 15 -4 8 -8 15 -10 15 -2 0 -4 -7 -4 -15z"/>
 <path d="M634 88 c-4 -7 -3 -8 4 -4 7 4 12 9 12 12 0 8 -9 4 -16 -8z"/>
 </g>
<g id="layer28" fill="#b11569" stroke="none">
 <path d="M545 300 c3 -5 -3 -17 -15 -27 -26 -23 -25 -31 5 -43 14 -5 30 -20 36 -32 l10 -23 -5 23 c-3 15 4 28 20 41 l24 19 -31 26 c-30 26 -56 35 -44 16z"/>
 <path d="M344 248 l-19 -23 23 19 c21 18 27 26 19 26 -2 0 -12 -10 -23 -22z"/>
 <path d="M630 230 c0 -7 3 -10 7 -7 3 4 3 10 0 14 -4 3 -7 0 -7 -7z"/>
 <path d="M304 198 c-4 -7 -3 -8 4 -4 12 7 16 16 8 16 -3 0 -8 -5 -12 -12z"/>
 <path d="M418 161 c-21 -15 -35 -31 -31 -35 3 -3 1 -6 -6 -6 -7 0 -9 -5 -5 -12 4 -6 3 -8 -3 -5 -9 6 -63 -52 -63 -66 0 -3 21 -12 46 -21 40 -13 44 -13 34 -1 -10 13 -9 19 10 35 13 11 29 20 37 20 7 0 12 3 11 8 -1 4 3 18 10 32 l13 25 -21 -24 c-11 -13 -23 -21 -26 -18 -10 10 27 68 52 79 28 13 42 5 25 -16 -10 -12 -9 -14 8 -9 12 3 21 13 21 22 0 14 2 14 11 1 9 -13 10 -13 6 0 -2 10 -18 16 -48 17 -35 2 -51 -3 -81 -26z"/>
 </g>

</svg>